<?xml version="1.0" encoding="UTF-8"?>
<!DOCTYPE svg PUBLIC "-//W3C//DTD SVG 1.1//EN" "http://www.w3.org/Graphics/SVG/1.1/DTD/svg11.dtd">
<!-- Creator: CorelDRAW X6 -->
<svg xmlns="http://www.w3.org/2000/svg" xml:space="preserve" width="84.6666mm" height="84.6666mm" version="1.1" style="shape-rendering:geometricPrecision; text-rendering:geometricPrecision; image-rendering:optimizeQuality; fill-rule:evenodd; clip-rule:evenodd"
viewBox="0 0 8467 8467"
 xmlns:xlink="http://www.w3.org/1999/xlink">
 <defs>
  <style type="text/css">
   <![CDATA[
    .str2 {stroke:#1C1B17;stroke-width:20}
    .str1 {stroke:black;stroke-width:67.73}
    .str0 {stroke:#2B2A29;stroke-width:84.67}
    .fil0 {fill:none}
    .fil1 {fill:#FEFEFE}
    .fil2 {fill:black}
   ]]>
  </style>
   <clipPath id="id0">
    <path d="M7895 4313c0,1981 -1606,3587 -3587,3587 -1981,0 -3587,-1606 -3587,-3587 0,-1981 1606,-3587 3587,-3587 1981,0 3587,1606 3587,3587z"/>
   </clipPath>
 </defs>
 <g id="Capa_x0020_1">
  <metadata id="CorelCorpID_0Corel-Layer"/>
  <rect class="fil0" x="-12" y="-12" width="8491" height="8451"/>
  <circle class="fil1 str0" cx="4326" cy="4309" r="3833"/>
  <path class="fil1" d="M7895 4313c0,1981 -1606,3587 -3587,3587 -1981,0 -3587,-1606 -3587,-3587 0,-1981 1606,-3587 3587,-3587 1981,0 3587,1606 3587,3587z"/>
  <g style="clip-path:url(#id0)">
   <g id="_703362120">
    <path id="1" class="fil2" d="M12480 3417c57,79 23,1997 23,2266 0,281 38,2208 -23,2295 -56,-93 -41,-4502 0,-4561zm-74 0c34,90 26,4496 0,4557 -50,-76 -29,-2000 -29,-2267 0,-275 -42,-2214 29,-2290zm-74 10l12 4548c-76,-79 -40,-3055 -40,-3407l2 -1090c12,-54 4,-21 26,-51zm223 -5c65,109 26,3042 26,3426 0,190 0,380 0,570 0,147 51,469 -32,567 -46,-180 -17,-4508 7,-4562zm-997 4491c65,-23 60,-30 121,3 -59,94 -114,-1 -121,-3zm-2100 48l-248 0 -196 -9 3 -2098 621 -10 6 2108 -187 9zm1920 -48c59,-28 74,-27 124,4 -33,56 -85,46 -124,-4zm-174 4c52,-31 66,-34 124,-1 -43,45 -90,56 -124,1zm-175 -4c76,-30 65,-19 122,5 -68,46 -65,57 -122,-5zm-176 0c70,-30 63,-21 122,6 -33,23 40,31 -56,29 -114,-2 -39,-7 -65,-35zm-173 0c73,-31 64,-21 122,5 -34,24 41,31 -57,29 -115,-2 -39,-7 -65,-35zm-177 0c72,-27 61,-23 122,5 -29,22 39,30 -54,30 -125,-1 -35,-1 -68,-35zm-173 0c69,-26 59,-24 116,5 -25,20 37,30 -50,29 -123,-1 -32,2 -67,-34zm-354 23l44 -53c-3,37 34,7 -10,37 -2,2 -13,8 -15,9 -3,2 -17,0 -19,7zm2015 -53l50 47 -84 -47 33 1zm-439 -69c59,-31 53,-50 130,0 -78,58 -73,34 -130,0zm-177 0c61,-46 71,-44 132,1 -62,50 -75,49 -132,-1zm-172 0c77,-56 74,-28 133,1 -61,32 -60,61 -133,-1zm-176 0c72,-51 70,-31 134,1 -64,34 -60,56 -134,-1zm-177 0c72,-47 66,-34 132,1 -71,39 -66,49 -132,-1zm-173 0c70,-47 65,-34 131,1 -68,38 -62,52 -131,-1zm-178 0c68,-43 61,-38 130,0 -72,44 -62,48 -130,0zm-174 0c63,-40 55,-42 125,0 -72,48 -63,44 -125,0zm5944 80l-55 -8 -16 -4 -108 -5c8,-75 -39,-104 83,-63l-4 -44 -3 -63c6,-3 15,-12 18,-8l71 -50 1 -49 50 -14 40 4 51 7 2 55 2 62 0 57 -67 47c-4,3 -12,10 -17,16l-1 47 -46 15zm-222 -212c41,73 46,38 -1,105 -54,-62 -60,-33 1,-105zm441 83l0 -55c49,-24 35,-17 79,-13 87,7 22,-8 73,18 -12,86 27,55 -55,65 -31,4 -64,4 -97,-15zm-4552 158c-49,78 17,55 -88,57l-137 -135c79,-108 9,-23 78,-41l-46 -59c76,22 165,115 222,177l-28 1zm-380 -209c55,-61 71,-50 125,-3 -52,27 -67,34 -125,3zm-177 0c48,-55 65,-59 125,-3 -55,31 -66,32 -125,3zm-176 0c34,-61 72,-48 125,-3 -57,35 -66,34 -125,3zm-175 0c62,-63 59,-47 125,-5 -58,25 -51,38 -125,5zm-177 0c33,-33 -48,-27 47,-33 114,-7 50,10 77,28 -61,29 -50,39 -125,5zm-172 0c58,-59 51,-53 123,-4 -58,26 -51,37 -123,4zm-177 0c37,-36 -50,-27 49,-33 108,-6 50,11 74,28 -60,29 -52,34 -123,5zm-175 0c39,-37 -51,-26 50,-33 103,-6 50,12 70,28 -61,31 -52,33 -120,5zm1422 -62c93,31 34,0 66,68 -24,-11 -23,2 -50,-29 -45,-52 1,-10 -17,-40zm-1573 192c71,12 25,-26 73,46l-80 93c-156,-5 -22,7 -88,-55l-48 38c20,-79 88,-123 153,-168 -9,-93 17,46 -12,-32 -9,-23 -8,4 -17,-49l94 -67 15 126 -89 68zm6270 -249c148,-20 37,-24 128,12 -55,112 52,75 -113,60l-57 -16 42 -56zm-324 -10c69,92 45,20 0,95 -42,-68 -78,-23 0,-95zm-106 8c47,13 39,-62 55,28 16,92 11,4 -25,58 -42,-51 -35,21 -30,-86zm-446 -4c15,-11 -10,-50 107,-37 115,13 52,5 81,67 -82,49 -106,26 -188,-30zm-3824 0c-7,-20 24,-39 29,4 7,68 -22,17 -29,-4zm-193 0c63,-29 58,-40 127,2 -17,14 25,26 -48,27 -133,3 -37,0 -79,-29zm-177 0c59,-37 72,-34 129,1 -60,52 -74,54 -129,-1zm-174 0c76,-45 70,-23 128,3 -63,35 -62,59 -128,-3zm-176 0c75,-42 69,-25 129,3 -66,37 -64,56 -129,-3zm-177 0c71,-40 63,-29 129,3 -72,43 -66,51 -129,-3zm-173 0c71,-39 65,-27 128,2 -69,42 -64,52 -128,-2zm-178 0c71,-37 62,-31 127,3 -73,47 -67,46 -127,-3zm-174 0c69,-35 58,-33 123,3 -29,20 34,26 -52,27 -124,1 -34,0 -71,-30zm-108 -11c2,-8 78,-34 45,17 -43,66 -49,3 -45,-17zm5345 -361c-10,-98 -23,-159 12,-237l175 7 4 76 1 31 0 71 3 22 1 66 -5 39 2 53 1 41 -2 58 5 39 -20 73 -154 -7c-40,-78 -21,-228 -22,-330zm-4007 273c49,-34 -54,-26 59,-29 85,-2 52,15 68,27 -69,40 -60,31 -127,2zm-178 0c54,-53 69,-54 128,-2 -59,37 -69,39 -128,2zm-173 0c66,-64 68,-37 128,-3 -57,26 -52,48 -128,3zm-177 0c65,-59 64,-40 130,-3 -62,28 -56,45 -130,3zm-177 0c61,-53 56,-47 129,-3 -64,31 -56,42 -129,3zm-172 0c60,-54 56,-46 127,-4 -63,32 -56,44 -127,4zm-177 0c36,-30 -47,-26 51,-30 108,-5 50,10 77,27 -65,33 -56,39 -127,3zm-175 0c39,-31 -48,-25 51,-29 101,-4 49,11 71,26 -64,36 -55,37 -122,3zm3110 -71c34,30 38,-38 27,61 -74,15 -23,13 -69,-11l42 -49zm-168 -1l64 2c63,14 21,-20 49,51 -31,14 39,27 -82,21 -89,-4 -29,10 -81,-27l50 -47zm-94 -7c35,50 62,-8 0,75 -42,-50 -61,-20 0,-75zm-123 31c59,-36 -3,-44 78,3 -46,47 -41,72 -78,-3zm-1259 -31l144 126 -21 64c-11,28 129,133 154,157l-37 26 42 49c-70,110 -3,19 -85,48l-157 -160 72 -46 -146 -105c21,-134 -63,46 8,-41 22,-27 27,-19 35,-21l-77 -69 67 -28zm-413 -20c25,-64 65,-53 122,-21 -27,53 -60,43 -122,21zm-350 -23l117 -12c-76,113 -112,14 -117,12zm526 -2l122 -9c-32,70 -85,66 -122,9zm-350 4c50,-28 65,-30 121,-1 -38,49 -91,60 -121,1zm-353 -4c73,-27 64,-19 121,6 -31,23 41,32 -56,31 -120,-2 -35,-2 -65,-37zm-173 0c76,-27 64,-19 121,6 -31,23 41,32 -56,30 -120,-2 -37,-4 -65,-37zm-177 0c73,-25 61,-22 120,6 -28,22 40,32 -52,31 -129,-2 -32,3 -68,-37zm-172 0c69,-24 59,-22 115,6 -25,22 40,31 -48,30 -125,-2 -31,2 -66,-36zm-7210 0c0,-17 48,-50 34,3 -12,47 -35,54 -34,-3zm8673 45l-49 -79 104 61c-34,45 -5,18 -54,17zm-1615 114l77 32 -147 161c2,-4 -6,-46 12,-2l15 60c-71,53 -65,72 -152,109 -26,-52 -10,-69 -13,-87l58 -142c-35,17 -3,38 -40,-13l165 -152c-7,-99 24,74 -10,-24 -7,-21 -9,1 -14,-52l139 43 -90 68zm5942 -293c62,34 84,5 31,112 -79,-31 -94,-17 -31,-112zm-2687 14c37,30 41,-40 29,60 -99,26 -42,4 -69,-10l40 -50zm-158 -5l54 4 52 14 -43 50 -72 2 -46 -38 57 -33zm-100 -3c43,63 55,0 1,78 -37,-48 -70,-14 -1,-78zm-113 69c3,-86 -9,-84 64,-35 -55,72 -1,20 -64,35zm-1312 -39c-7,-21 23,-34 28,4 8,65 -22,13 -28,-4zm-195 0c62,-32 56,-48 129,1 -17,13 22,25 -48,27 -130,3 -42,-3 -81,-28zm-177 0c60,-44 70,-42 131,1 -62,51 -74,50 -131,-1zm-172 0c77,-55 75,-27 132,1 -58,32 -58,64 -132,-1zm-176 0c75,-50 71,-29 132,1 -65,36 -63,59 -132,-1zm-177 0c70,-45 65,-33 130,1 -67,40 -61,54 -130,-1zm-173 0c70,-46 65,-33 129,1 -67,40 -62,54 -129,-1zm-178 0c71,-43 60,-37 128,2 -71,45 -64,48 -128,-2zm-173 0c63,-39 54,-40 122,1 -71,50 -61,46 -122,-1zm-59 -16l-36 53c-12,-37 33,-47 36,-53zm-9681 -1022c54,89 49,973 0,1072 -49,-104 -56,-984 0,-1072zm10974 950c46,-52 -59,-40 55,-45 92,-4 53,19 66,30l-121 15zm-182 -11c30,-62 81,-53 127,-4 -55,29 -66,31 -127,4zm-175 10c31,-69 77,-66 123,-13l-123 13zm-175 -10c58,-65 56,-52 123,-7 -57,25 -45,38 -123,7zm-177 0c33,-36 -51,-28 47,-34 111,-8 50,11 75,29 -58,26 -50,34 -122,6zm-173 0c34,-37 -52,-28 46,-34 112,-8 50,10 75,29 -58,26 -46,34 -121,6zm-177 0c39,-41 -54,-28 49,-35 108,-7 50,12 73,30 -60,28 -50,32 -121,5zm-174 0c37,-39 -52,-28 49,-35 105,-8 47,11 68,29 -58,30 -49,33 -117,6zm5585 -54l3 -45 22 -60 140 6 30 53 4 47c-36,75 24,31 -63,50l-102 0 -34 -52zm-2520 -21c68,-28 37,-52 69,22 -87,57 -45,-6 -69,-22zm-134 -17l82 1 41 51c-32,14 38,26 -83,20l-81 -27 41 -45zm-159 -11l56 10 51 12c-23,56 -3,34 -47,48l-63 11 -51 -44 54 -37zm-5355 54c53,-35 48,-51 120,0 -65,33 -61,26 -120,0zm8440 -74c79,-44 120,-46 199,2 -37,26 38,33 -86,39 -125,6 -86,-21 -113,-41zm-4629 0c66,-28 57,-37 125,3 -16,13 26,27 -47,28 -138,2 -33,3 -78,-31zm-178 0c58,-34 71,-32 126,2 -59,54 -75,52 -126,-2zm-173 0c75,-42 70,-21 126,3 -62,37 -62,63 -126,-3zm-176 0c74,-40 68,-23 127,4 -66,39 -64,57 -127,-4zm-177 0c73,-38 65,-26 128,4 -37,23 37,28 -60,28 -115,-1 -40,-6 -67,-32zm-173 0c73,-39 65,-26 127,4 -72,45 -67,52 -127,-4zm-177 0c73,-35 62,-29 125,4 -33,23 37,28 -55,28 -121,0 -37,-3 -69,-32zm-175 0c66,-32 57,-31 121,4 -26,19 33,28 -51,28 -122,0 -35,-1 -70,-31zm1634 261l126 128c-80,117 -8,23 -83,50l51 49c-76,-18 -142,-93 -196,-151l28 -2 -151 -153c78,-114 10,-23 77,-46l-50 -76c28,-83 -1,-11 -16,-95l109 64 -25 79 172 139c-47,67 -10,20 -40,14zm-1763 -77c37,-19 5,-39 40,8l-193 177 24 75c-65,43 -34,39 -110,48 60,-85 33,-37 7,-101l31 -35 -40 -25c45,-112 125,-191 222,-251 -2,0 -57,41 -31,-49 14,-48 63,-67 102,-88l34 169 -86 72zm-2455 -208c58,-32 52,-42 123,0 -71,46 -65,34 -123,0zm8449 -179l158 4 32 54 -2 45c-29,81 26,31 -58,53l-124 2c-55,-37 -27,14 -28,-79 -2,-142 -11,-27 22,-79zm-276 105l-5 -47 26 -60 141 6 32 54 0 46 -25 61 -110 -7c-88,-21 -26,17 -60,-51zm-15578 -713c54,67 27,258 27,366 0,109 28,316 -27,387 -25,-98 -32,-673 0,-752zm15245 182l119 0c65,22 31,-2 55,69l-3 39 3 57 -2 41 -1 50 2 47 -3 53 6 38 -8 57 -1 42 4 68 -172 4c-40,-84 -38,-480 2,-564zm-2158 483c67,75 46,17 1,72 -28,-40 -64,-10 -1,-72zm-157 2l63 1 53 38 -54 29 -57 3 -51 -21 47 -50zm-95 -4c62,82 38,22 1,77 -29,-39 -79,-6 -1,-77zm-121 50c29,-58 2,-65 69,-21 -32,65 -6,52 -69,21zm-1305 0c-17,-53 54,-1 28,8 0,0 -5,1 -6,1 -34,-1 -16,13 -23,-9zm-193 0c49,-34 -52,-27 59,-30 85,-2 49,15 67,28 -67,42 -63,30 -126,1zm-177 0c55,-38 -55,-28 62,-30 77,-1 43,11 65,29 -71,44 -67,27 -128,1zm-171 0c45,-28 -47,-32 61,-26 109,5 6,-7 63,24 -75,35 -44,38 -123,3zm-179 0c67,-61 64,-40 129,-3 -61,29 -56,47 -129,3zm-177 0c64,-55 58,-45 129,-3 -64,32 -58,45 -129,3zm-173 0c67,-57 61,-44 128,-2 -63,31 -57,44 -128,2zm-178 0c64,-51 55,-49 126,-3 -65,36 -57,41 -126,3zm-174 0c39,-31 -46,-26 51,-29 100,-4 47,10 71,28 -65,37 -57,38 -122,2zm-60 -15c-24,104 -11,28 -45,46l45 -46zm-2861 -10c73,-35 391,-36 467,5 -76,63 -107,23 -223,18 -95,-4 -180,19 -244,-23zm-4831 0l66 -7c-37,28 27,74 -66,7zm-102 -6c84,-26 42,-7 75,10 -63,46 -22,46 -75,-10zm645 -18c51,-37 68,-41 138,1 -59,38 -73,33 -138,-1zm-1536 0c73,-40 26,-22 68,3 -86,64 -26,34 -68,-3zm9796 -72c56,-34 72,-33 125,2 -54,95 -121,0 -125,-2zm-4418 -1c75,-31 63,-27 125,-1 -76,111 -115,6 -125,1zm-1566 -3606c71,91 25,1578 25,1821 0,248 48,1727 -25,1823 -48,-82 -41,-3579 0,-3644zm9235 3234l2 -19c26,-102 -26,-39 56,-66 58,23 30,0 50,60l1 38 -3 463c-80,-175 -6,-23 -109,-128l3 -348zm-3074 372c61,-33 74,-27 124,3 -35,56 -81,50 -124,-3zm-351 4c53,-34 65,-37 124,-1 -43,46 -89,60 -124,1zm-175 -4c76,-33 67,-20 123,5 -67,45 -63,60 -123,-5zm-176 0c74,-32 64,-22 122,5 -33,24 40,30 -57,30 -116,-1 -38,-5 -66,-34zm-174 0c74,-31 64,-22 122,5 -34,24 40,31 -57,29 -117,-1 -37,-4 -66,-35zm-176 0c73,-29 62,-24 121,5 -29,21 38,30 -53,29 -124,-1 -34,0 -68,-34zm-174 0c68,-29 58,-26 118,5 -25,20 37,30 -50,29 -122,-1 -34,0 -68,-34zm-4737 10c-29,-53 -45,-3464 0,-3579 48,69 28,48 27,224l0 669c-1,392 32,2618 -27,2686zm-4683 -603c45,72 44,545 -1,617 -40,-79 -40,-540 1,-617zm-647 0c39,77 40,536 1,613 -45,-71 -43,-545 -1,-613zm-245 -1c44,70 45,543 0,613 -42,-75 -40,-541 0,-613zm5773 -2946c63,86 26,1535 26,1755 0,220 37,1698 -26,1778 -40,-83 -34,-3469 0,-3534zm-2669 3515c55,-32 60,-18 133,-4 -46,28 64,22 -64,27 -71,3 -43,-6 -69,-22zm-548 0c26,-45 11,-48 58,-21 -20,49 6,49 -58,21zm-97 0c35,-48 -28,-33 66,-33 -16,39 26,77 -66,33zm10917 -54l68 -18c10,110 5,36 -25,68l-43 -50zm-177 0l23 -39 101 27 42 36 -54 26 -59 0 -52 -50zm-43 -18c64,82 32,27 0,75 -22,-32 -75,-10 0,-75zm-121 47c30,-56 18,-82 74,-5 -82,49 -26,28 -74,5zm-10186 0c80,-43 31,-23 72,3 -88,74 -37,29 -72,-3zm-84 -9c99,-13 38,-10 58,42 -78,-13 -30,17 -58,-42zm-1199 -14c54,-23 37,-26 63,21 -83,39 -44,-11 -63,-21zm-101 23c32,-54 9,-48 72,-24 -22,39 24,67 -72,24zm-98 0c85,-92 43,-32 80,-7 -41,22 6,49 -80,7zm-56 -46c40,71 38,4 1,71 -35,-46 -50,-14 -1,-71zm10701 2l-28 -29c11,1 105,16 28,29zm-478 -6c58,-33 55,-56 131,1 -79,56 -74,33 -131,-1zm-175 0c59,-50 71,-47 132,0 -62,48 -72,51 -132,0zm-173 0c73,-61 74,-30 132,0 -58,30 -56,62 -132,0zm-177 0c74,-56 71,-33 133,0 -65,34 -62,56 -133,0zm-177 0c70,-49 63,-37 130,0 -68,38 -62,50 -130,0zm-173 0c70,-50 66,-35 130,0 -67,37 -61,51 -130,0zm-179 0c69,-46 59,-42 130,1 -71,42 -63,45 -130,-1zm-174 0c65,-44 55,-46 125,0 -72,47 -62,44 -125,0zm-10386 -494c37,76 39,438 2,513 -55,-85 -52,-432 -2,-513zm12022 758l127 124c-80,120 -9,24 -84,53l49 48c-68,-16 -120,-75 -170,-125l28 -4 -201 -203c78,-109 10,-23 74,-41l-37 -32c26,-87 27,4 26,-59 -1,-51 -20,15 -24,-62l107 61 -28 81 172 145c-52,76 -8,18 -39,15zm-1716 -205l28 -2 -152 141c75,16 33,-20 78,53l-122 134c30,-21 6,-28 29,1 -51,50 -73,91 -142,101l48 -45c-69,-17 -37,11 -77,-51 56,-70 55,-20 15,-64l48 -36 159 -154c-70,-9 -34,17 -77,-42l164 -153 54 58 -53 57zm-3216 -111l54 18 -53 33c-123,10 -42,5 -85,-25 61,-41 -10,-22 84,-25zm-7332 -442c47,72 55,403 -2,478 -36,-73 -31,-408 2,-478zm-79 1c36,82 30,389 0,477 -42,-89 -54,-392 0,-477zm7627 417c62,-53 215,-24 305,-25 99,0 252,-29 314,25 -67,24 -568,29 -619,0zm-4473 11c32,-46 -17,-90 68,-16l-68 16zm-101 -11c51,-47 -13,-67 73,-4 -50,29 6,43 -73,4zm-97 0c52,-48 17,-42 74,-3 -55,34 4,49 -74,3zm-98 0c75,-66 20,-39 77,-2 -59,36 -2,54 -77,2zm9267 -33l58 27 -58 -27zm-187 8c42,-52 90,-59 124,-3 -50,28 -62,33 -124,3zm-178 0c39,-50 92,-62 126,-4 -52,33 -64,33 -126,4zm-173 0c36,-68 77,-48 121,-1 -58,23 -50,34 -121,1zm-176 0c38,-65 78,-50 121,-1 -59,24 -50,32 -121,1zm-175 0c57,-59 51,-55 122,-5 -59,26 -53,36 -122,5zm-174 0c29,-30 -47,-27 46,-33 113,-7 48,9 76,28 -58,26 -49,35 -122,5zm-177 0c38,-38 -54,-28 49,-34 109,-7 50,12 73,29 -61,29 -49,34 -122,5zm-174 0c39,-40 -53,-28 49,-34 102,-6 49,13 69,29 -59,31 -49,34 -118,5zm-85 43l-48 1 65 -63 -17 62zm-8662 -43c50,-48 15,-45 70,-3 -50,32 7,48 -70,3zm-99 0c84,-76 28,-37 80,-3 -45,25 1,52 -80,3zm-90 0c61,-40 6,-37 66,-1 -62,38 -5,29 -66,1zm-99 0c68,-40 0,-38 71,0 -68,38 -8,29 -71,0zm12100 -53c47,-29 -3,-27 69,-11 14,104 5,29 -22,62 -65,-16 -25,19 -47,-51zm-135 -13l98 -21 27 30 -14 51 -41 2 -51 5 -58 -18 39 -48zm-85 -4c64,80 26,37 0,77 -22,-32 -74,-12 0,-77zm-124 46c33,-55 5,-56 72,-23 -35,80 -9,57 -72,23zm-6094 -25c95,-39 74,-26 132,6 -54,40 54,34 -60,32 -119,-3 -37,-4 -72,-38zm286 -25c83,-37 558,-48 625,0 -73,41 -200,19 -292,21 -59,1 -115,6 -174,7 -80,2 -99,8 -159,-28zm4312 -50c64,-30 58,-42 128,1 -18,14 22,26 -48,28 -132,3 -39,-1 -80,-29zm-177 0c61,-41 70,-37 130,1 -62,52 -75,53 -130,-1zm-174 0c77,-49 72,-25 130,2 -60,34 -58,63 -130,-2zm-175 0c76,-47 70,-26 130,2 -65,37 -63,59 -130,-2zm-177 0c73,-43 66,-30 129,3 -70,41 -65,52 -129,-3zm-174 0c72,-42 66,-30 129,2 -70,43 -65,52 -129,-2zm-178 0c72,-39 62,-34 130,2 -74,47 -66,48 -130,-2zm-173 0c65,-37 56,-37 123,2 -72,51 -64,45 -123,-2zm-7460 0c38,-34 -15,-74 73,-3 -57,36 -6,37 -73,3zm-99 0c50,-41 -14,-65 76,-2 -89,60 -31,31 -76,2zm-99 0c73,-54 18,-39 75,-2 -89,67 -32,33 -75,2zm-95 0c79,-52 24,-29 74,1 -92,65 -30,35 -74,-1zm-96 0c76,-46 40,-16 74,3 -81,57 -17,52 -74,-3zm-898 -25c63,-46 16,-41 73,1 -83,62 -20,41 -73,-1zm-96 0c79,-50 39,-19 81,2 -64,40 -3,61 -81,-2zm-89 0c66,-36 9,-30 66,3 -39,27 40,39 -34,17 -3,-1 -14,-5 -17,-6 -3,-1 -10,-10 -16,-14zm-99 0c68,-33 11,-26 71,4 -29,19 41,68 -71,-4zm5952 -25c92,-31 540,-37 617,0 -58,42 -558,50 -617,0zm-213 -30l50 20 -29 30c-121,-2 -53,5 -117,-29l96 -21zm6361 -23l66 -17c24,110 8,36 -18,69 -68,-19 -28,17 -49,-52zm-48 -19c32,60 28,21 -1,75 -34,-49 -55,-5 1,-75zm-95 2c34,54 36,-36 19,38l-19 33c-32,-46 -44,-14 -1,-72zm-78 1c65,79 23,39 -1,77 -19,-29 -75,-11 1,-77zm-122 17c55,-29 -6,-39 84,3 -12,89 8,10 -42,48l-42 -51zm-1495 2c47,-35 -54,-27 57,-30 86,-3 50,15 67,28 -64,38 -58,30 -124,3zm-179 0c51,-53 66,-56 127,-1 -56,32 -68,34 -127,1zm-174 0c50,-51 63,-60 123,-1 -56,35 -68,33 -123,1zm-175 0c63,-61 62,-42 127,-3 -59,26 -53,43 -127,3zm-178 0c60,-56 54,-49 127,-4 -62,29 -55,40 -127,4zm-173 0c61,-56 55,-48 126,-3 -61,29 -54,40 -126,3zm-177 0c37,-33 -49,-26 50,-31 108,-5 49,10 75,28 -62,31 -54,38 -125,3zm-175 0c39,-34 -50,-26 51,-31 102,-5 48,11 70,27 -64,35 -53,37 -121,3zm-7212 -1l139 17c-68,44 -94,26 -139,-17zm12565 14c-81,10 -85,-16 -115,-32 38,-38 -78,-50 87,-69 81,-9 80,17 105,33 -27,65 38,54 -77,67zm-3650 315l34 43c-30,89 -36,28 -4,125 -103,3 -70,-4 -157,-63 0,0 -53,-45 47,-70l-219 -177 19 -85c0,-3 -3,-10 -3,-12 5,-239 31,75 14,-70 -2,-19 -27,31 -13,-62 105,24 67,31 147,81l-31 82 164 209zm-1895 -119c62,5 17,-37 65,42l-122 133 28 -6c-48,59 -76,100 -140,110l47 -42c-76,-15 -39,16 -82,-52l72 -80c-34,14 2,48 -47,-16l168 -154 -24 -75 149 -112c17,34 -4,45 8,93 47,189 -7,-108 17,51l-140 109zm-7491 -257c-32,44 -10,43 -68,21 23,-16 -23,-65 68,-21zm-159 33c29,-65 -36,-37 60,-45 -25,57 36,46 -60,45zm381 -35c63,-41 -1,-53 76,0 -90,69 -35,32 -76,0zm-97 0c78,-44 15,-36 77,1 -95,73 -48,25 -77,-1zm-98 0c79,-37 21,-27 73,3 -90,72 -39,30 -73,-3zm-725 0c83,-32 288,-13 359,28 -108,10 -267,13 -359,-28zm-488 -24c-31,50 4,61 -73,19 34,-81 54,-27 73,-19zm-165 24c78,-91 33,-36 75,-7 -31,16 11,56 -75,7zm13348 -124l19 -64 65 0 6 64c13,121 31,48 -16,141l-86 -11 12 -130zm-7908 119c-55,-116 -23,-20 1,-73 19,48 60,-5 -1,73zm-3613 -20c31,-25 -61,-28 68,-24 50,2 46,15 69,28 -56,34 -64,27 -136,-3zm-1439 0c78,-41 32,-21 77,3 -89,62 -23,48 -77,-3zm-26 5c-68,45 -20,48 -77,-12 73,-33 59,2 77,12zm-168 -5c91,-40 42,-10 73,6 -60,45 -24,53 -73,-6zm10299 12l-34 -57 34 57zm-107 -58c-39,64 -81,44 -120,-4 65,-22 58,-30 120,4zm-354 -2c-42,48 -85,67 -120,-1 70,-31 61,-21 120,1zm-1123 79c19,-47 -42,-20 73,-63l-73 63zm-3180 -25c61,-37 -77,-27 50,-45 -17,54 12,30 -50,45zm-176 -4l58 -43c-30,161 90,-131 -8,39 -41,71 20,1 -50,4zm-1873 -3c-62,-99 -25,-1355 -25,-1584 0,-229 -38,-1456 25,-1558 49,91 48,3052 0,3142zm10783 -75c0,1 18,138 -193,33 0,0 -7,-139 193,-33zm-4379 28c63,-28 72,-26 129,4 -48,48 -98,58 -129,-4zm-347 0c76,-31 66,-18 122,6 -68,46 -66,59 -122,-6zm-177 0c71,-28 64,-19 121,6 -26,19 39,37 -75,28 -94,-7 -15,-1 -46,-34zm-173 0c75,-28 64,-20 121,6 -27,20 37,37 -76,29 -95,-7 -16,-2 -46,-34zm-177 0c75,-29 61,-24 121,7 -23,18 39,37 -72,29 -102,-8 -11,4 -48,-35zm-173 0c66,-26 58,-23 116,5 -18,15 32,36 -68,29 -101,-6 -9,7 -48,-34zm3064 -51c30,-16 -37,-35 67,-12 27,105 9,35 -13,66l-48 -8 -6 -47zm-114 -13l39 3c82,5 27,-11 64,49l-64 14 -34 4 -64 -29c31,-46 -21,-33 61,-40zm-106 -4c64,84 26,37 -1,81 -62,-60 -51,-19 1,-81zm-39 51l-81 18c6,-90 14,-93 81,-18zm-10827 25c-50,17 -101,5 -164,2 -27,-2 -101,-2 -122,-6 -138,-24 -36,-2 -79,-37 96,-3 286,-9 366,41zm7937 -56c0,-3 0,-7 2,-9l-2 9zm-7124 -1c53,-30 62,-25 132,3 -52,37 -68,37 -132,-3zm-450 0c35,-36 -15,-79 70,7l-70 -7zm-97 0c45,-43 -16,-69 72,-4 -29,15 4,42 -72,4zm-98 0c74,-67 16,-44 76,-3 -44,25 -3,53 -76,3zm392 -25c76,-35 19,-27 71,3 -88,76 -47,21 -71,-3zm-96 -10l68 15c-88,78 -40,27 -68,-15zm-1118 -15c-25,48 16,68 -73,24 27,-13 -16,-53 73,-24zm-94 25c-61,30 1,50 -79,0 29,-13 9,-90 79,0zm-167 0c105,-69 41,-22 67,-4 -59,34 -1,37 -67,4zm-99 0c6,-3 14,-11 17,-12 97,-27 14,-13 54,11 -61,31 -9,36 -71,1zm10260 -25c39,-25 -48,-31 80,-28 72,2 30,13 48,27 -72,47 -66,33 -128,1zm-178 0c57,-51 70,-52 131,-1 -60,42 -71,43 -131,1zm-172 0c73,-62 72,-33 131,-1 -58,28 -56,53 -131,1zm-176 0c70,-58 68,-36 132,-1 -62,30 -59,51 -132,1zm-177 0c64,-52 60,-42 132,-2 -67,34 -61,47 -132,2zm-173 0c68,-53 62,-40 130,-1 -64,33 -58,46 -130,1zm-178 0c63,-47 56,-47 129,-2 -69,38 -59,42 -129,2zm-174 0c36,-27 -49,-30 71,-28 84,1 23,7 52,26 -67,41 -57,41 -124,2zm-1983 27c-34,-54 -36,-5 0,-65 29,60 44,4 0,65zm-1438 -51l118 -8 60 34 -48 19 -134 0 -54 -31 58 -15zm-125 23c46,-23 13,-28 64,1 -50,28 -19,32 -64,-1zm-22 25c-71,-4 -35,18 -47,-45 54,17 33,-12 47,45zm-1859 -28c-37,-75 -44,-2864 0,-2982 39,68 27,91 26,184 -7,494 39,2704 -26,2797zm-198 -6c-65,-84 -26,-583 -26,-735 0,-349 -28,-2112 26,-2202 24,64 32,2824 0,2937zm-2387 23c-87,12 -315,7 -376,-35 82,-18 304,-11 376,35zm12425 -94c-34,88 -19,90 -109,34 38,-46 -11,-122 109,-34zm-1343 -46c31,-15 -36,-34 66,-9 26,82 23,17 -10,67l-51 -10 -5 -47zm-113 -13l37 4 64 40 -57 20 -50 4 -61 -40 67 -28zm-109 70c-38,-58 -35,-10 1,-74 30,66 44,6 -1,74zm-122 -31c30,-27 -20,-78 78,-1 -94,61 -50,21 -78,1zm-1373 8l-118 -8c5,-2 60,-103 118,8zm-172 0l-127 -11c5,-2 38,-92 127,11zm-184 3l-117 -13c8,-4 36,-98 117,13zm-174 0l-117 -13c6,-3 36,-100 117,13zm-295 -11c27,-29 -50,-34 65,-36 96,-2 25,7 56,30 -57,24 -51,32 -121,6zm-173 0c25,-28 -50,-34 64,-35 96,-2 24,6 56,30 -56,24 -49,32 -120,6zm-177 0c33,-37 -59,-34 67,-37 94,-2 24,7 52,30 -59,30 -44,34 -119,7zm-173 0c33,-36 -58,-35 66,-36 87,-1 26,10 49,30 -57,27 -47,30 -115,6zm-7462 0c34,-35 -15,-79 70,-5 -46,28 5,39 -70,5zm-101 0c38,-33 -16,-74 75,-4 -55,32 -14,35 -75,4zm-99 0c47,-37 -17,-68 76,-3 -60,39 -14,41 -76,3zm-95 0c73,-51 15,-39 77,0 -60,38 -18,46 -77,0zm-96 0c78,-48 35,-20 75,2 -61,42 -13,58 -75,-2zm9306 166l-39 -28 29 2 -29 -59c1,4 7,-15 8,-18l14 -111 129 86c-2,9 63,33 -41,71l137 107 -26 78 99 80c-3,7 -8,9 -9,18 -1,8 -7,13 -8,15 -20,53 -9,-3 -10,34 0,2 2,9 3,11l-2 61 -130 -81c0,-7 3,-28 4,-23l19 -53c0,0 2,-2 2,-3 -30,-22 -54,-41 -84,-65 -94,-75 -61,-29 -66,-121zm-1536 -112c41,4 -14,-64 54,27l-130 109c3,1 5,-14 30,23 72,108 -19,-113 10,46l-140 105c94,26 41,66 42,69 -105,56 -35,68 -154,64 57,-100 37,-32 -4,-119l86 -76c-97,-13 -41,-60 -41,-60l174 -121 -66 -50c11,-14 49,-71 63,-81 116,-83 59,-25 123,-22 -22,83 28,28 -45,86zm-2203 -109c88,-14 139,-31 184,41l-206 4 -31 -27 53 -18zm-795 56c88,-38 552,-51 617,0 -97,39 -544,42 -617,0zm-440 -4c-3,-5 -11,-11 -11,-14 -1,-3 -4,-14 -5,-17 -19,-94 -23,43 16,-42 22,49 63,-6 0,72zm-76 2l-14 -30c-16,-92 -22,36 16,-39 21,50 58,-5 -2,69zm-2093 89c-56,-203 -44,-2859 -13,-2926 56,68 35,2677 13,2926zm-211 -94c-29,-69 -34,-2694 0,-2797 47,73 26,264 26,351 0,307 39,2365 -26,2446zm-2745 -17c68,-64 13,-46 76,-4 -37,20 -1,49 -76,4zm-102 0c85,-70 35,-31 78,-3 -38,23 2,59 -78,3zm-99 0c83,-63 23,-36 80,-1 -57,35 -1,63 -80,1zm-90 0c62,-27 5,-36 67,1 -64,39 -6,39 -67,-1zm-103 0c85,-53 40,-17 81,4 -47,28 -7,75 -81,-4zm13469 8c-134,2 -87,30 -128,-51 67,-50 47,-35 154,-34 170,1 428,-33 461,52 -62,52 -341,31 -487,34zm-6418 13c-48,-61 -31,-25 2,-69 33,64 35,0 -2,69zm-74 3c-58,-61 -32,-28 0,-69 37,64 35,-1 0,69zm-1182 -45c-38,28 38,36 -96,35 -84,-1 -41,-7 -61,-39 77,-28 97,-25 157,5zm4710 -27c-42,-12 -27,36 -43,-48l43 48zm-1520 -37l-53 44c-10,-77 -26,-39 53,-44zm-3025 9c93,-24 546,-39 614,0 -75,50 -217,23 -314,25 -88,2 -227,24 -300,-25zm4306 -25c64,-28 56,-38 125,2 -18,14 16,30 -67,28 -112,-3 -11,4 -58,-30zm-176 0c86,-35 51,-29 126,3 -42,22 28,20 -66,24 -108,5 -20,-1 -61,-27zm-176 0c75,-46 71,-23 128,4 -60,34 -61,61 -128,-4zm-176 0c75,-44 70,-25 129,3 -65,38 -64,58 -129,-3zm-178 0c71,-39 65,-28 128,3 -73,44 -66,52 -128,-3zm-173 0c71,-39 64,-27 126,3 -69,44 -64,53 -126,-3zm-178 0c72,-37 62,-31 127,3 -27,18 32,32 -76,27 -99,-5 -14,1 -50,-30zm-175 0c66,-35 57,-34 122,2 -21,15 27,32 -71,28 -101,-4 -10,4 -51,-30zm-7462 -25c46,-36 -15,-69 75,-3 -80,56 -21,36 -75,3zm-97 0c54,-36 -11,-57 77,-1 -92,63 -33,34 -77,1zm-98 0c82,-46 21,-31 74,2 -92,69 -31,36 -74,-2zm-26 4c-85,59 -27,40 -74,-19l74 19zm-165 -4c86,-38 39,-9 68,6 -78,63 -18,58 -68,-6zm10919 -47c30,-19 -36,-34 62,-15 34,104 9,42 -6,71l-54 -12 -2 -44zm-117 -17l41 4 62 41 -60 24 -45 2 -63 -41 65 -29zm-106 74c-38,-61 -35,-13 0,-78 31,70 43,7 0,78zm-123 -35c30,-26 -19,-79 79,-1 -93,65 -45,26 -79,1zm-4687 20c-71,-9 -29,15 -47,-45 66,21 33,-28 47,45zm-128 -20c107,-59 36,-19 63,-2 -46,26 -20,27 -63,2zm-108 -28l34 0 67 35 -65 20 -26 10 -76 -41 66 -23zm-129 28c56,-25 3,-26 64,4 -56,32 -20,37 -64,-4zm-1094 -25l114 -6 63 33 -51 22 -132 -2 -53 -29 59 -18zm-127 25c48,-23 14,-27 65,2 -53,32 -19,35 -65,-2zm-18 27c-75,0 -38,22 -48,-44 62,20 26,-23 48,44zm-5080 -27c84,-60 35,-27 79,0 -61,40 -18,49 -79,0zm-99 0c83,-51 37,-22 78,2 -59,40 -6,65 -78,-2zm-97 0c83,-41 42,-13 76,5 -59,39 -6,66 -76,-5zm-206 50c3,-9 -22,-138 195,-54 -51,64 30,42 -195,54zm664 -75c26,-14 5,-13 55,-20 32,-4 264,13 312,44 -75,32 -285,1 -368,-25zm-1810 0c30,-14 -4,-53 76,2 -85,74 -46,21 -76,-2zm-99 0c29,-14 -9,-51 82,1 -99,76 -53,20 -82,-1zm-95 0c50,-25 -5,-46 79,1 -98,75 -54,18 -79,-1zm-95 0c49,-26 -7,-47 74,2 -91,67 -48,20 -74,-2zm-99 0c60,-32 0,-42 74,1 -90,67 -47,21 -74,-1zm11812 -25c55,-59 71,-50 126,-3 -52,29 -65,35 -126,3zm-177 0c51,-55 66,-56 127,-2 -55,30 -69,32 -127,2zm-175 0c49,-51 63,-62 124,10l-124 -10zm-175 0c62,-63 59,-45 126,-4 -58,24 -53,40 -126,4zm-177 0c58,-56 52,-52 125,-4 -61,28 -54,38 -125,4zm-174 0c59,-56 52,-52 124,-4 -60,28 -54,36 -124,4zm-177 0c33,-30 -53,-32 69,-33 93,-1 23,6 54,28 -62,31 -52,36 -123,4zm-173 0c35,-33 -55,-33 68,-32 83,1 26,9 51,28 -59,31 -52,33 -119,3zm1688 185l34 43 -16 4 44 80 -77 27 32 59 -149 -143 30 3c-71,-76 -120,-78 -132,-174l-39 -44 20 -3 -40 -92c50,3 61,-6 128,39 28,19 45,37 67,58 66,61 89,67 99,142zm-1738 -242c-14,92 -9,74 -100,135 9,93 -34,-89 11,21 20,48 0,-51 16,56l-155 116c19,99 -39,-95 14,25 20,45 0,-45 19,57l-100 57c-17,-46 -4,-8 -4,-44 2,-101 15,70 5,-24 -2,-17 3,-12 -33,-38l61 -77c-93,-21 -44,-65 -41,-63l306 -222zm-7703 7c46,-48 -14,-69 69,-5 -29,16 4,42 -69,5zm-99 0c68,-68 11,-49 73,-5 -38,22 -1,49 -73,5zm5559 -54l157 0c5,1 15,15 19,9 4,-6 12,8 18,12 -80,37 -109,23 -208,23l-27 -23 42 -21zm-1229 51c-52,-97 -22,-27 0,-71 21,47 63,-7 0,71zm-75 3c-31,-54 -33,-4 1,-70 23,51 60,-8 -1,70zm-3867 -24c64,-37 2,-46 75,1 -91,70 -48,21 -75,-1zm-96 0c73,-37 15,-31 73,3 -91,78 -42,29 -73,-3zm-96 0c74,-28 36,-12 67,5 -85,77 -36,31 -67,-5zm-735 0c64,-38 295,-11 371,26 -64,40 -301,14 -371,-26zm-282 -25c-33,48 2,56 -73,23 27,-17 -21,-61 73,-23zm-170 25c41,-46 -26,-13 41,-27 81,-16 -12,-13 33,20 -33,17 3,44 -74,7zm-193 0c117,-70 41,-22 72,-3 -64,35 -3,39 -72,3zm7050 22c-45,-55 -32,-26 0,-70 37,65 37,-1 0,70zm-75 8c-63,-66 -35,-32 -1,-74 42,69 37,-1 1,74zm-1374 -61c38,-3 77,-13 112,-11 100,3 27,-5 80,24 -68,50 40,30 -92,33 -40,1 -56,-9 -95,-21 -23,18 19,41 -52,-6l48 -18zm-5212 6c79,-38 38,-15 76,5 -64,45 -19,53 -76,-5zm-299 25c90,-77 41,-29 78,-5 -33,18 21,56 -78,5zm-1176 -27c-72,48 -14,30 -77,5 11,-5 20,-98 77,-5zm-170 3c28,-24 -17,-86 76,-4 -75,42 -22,26 -76,4zm-96 0c27,-25 -17,-85 74,-3 -74,40 -19,27 -74,3zm-96 0c24,-24 -19,-82 73,8l-73 -8zm-28 -1c-52,27 5,39 -74,1 13,-6 13,-92 74,-1zm13581 -45c32,-22 -40,-38 63,-16 35,108 10,37 -7,69l-53 -10 -3 -43zm-116 -19l40 3 62 44 -59 20 -46 5 -63 -42 65 -30zm-232 13l55 -25 48 21 58 37 -59 18 -40 15 -55 -18 -7 -49zm-4399 51c-23,12 -19,18 -62,9 -128,-28 -23,1 -63,-45l125 37zm430 -99c47,-20 18,-24 68,2 -52,28 -22,30 -68,-2zm-195 -20l136 1 53 29 -69 16 -108 0 -67 -31 55 -15zm-121 20c44,-22 13,-26 62,1 -52,30 -20,32 -62,-1zm-5995 0c34,-33 -16,-81 71,5l-71 -5zm-100 0c38,-34 -15,-74 71,-4 -58,37 -10,37 -71,4zm-96 0c77,-63 17,-41 75,-3 -54,33 -2,53 -75,3zm-97 0c79,-58 34,-25 77,0 -56,38 -3,66 -77,0zm6040 2c61,-43 51,-46 134,16l-134 -16zm-195 -7c45,-56 -49,-25 47,-45 -23,60 23,30 -47,45zm-85 -19c60,-32 -1,-42 66,-1 -49,28 -20,29 -66,1zm-213 -16l150 -7 58 32 -66 20 -113 2 -56 -28 27 -19zm-1119 -8l114 -8 65 35 -48 20 -130 2 -57 -31 56 -19zm-123 52c48,-41 -71,-19 49,-48 -16,60 19,36 -49,48zm-48 17c-46,-53 -32,-25 0,-68 38,64 39,-2 0,68zm-3864 -44c75,-30 22,-23 69,5 -87,74 -37,28 -69,-5zm-1185 0c53,-58 8,-54 70,-6 -30,17 2,43 -70,6zm-201 0c87,-73 36,-32 81,-3 -45,26 -4,56 -81,3zm-98 0c92,-67 41,-24 82,-2 -42,25 1,68 -82,2zm-91 0c50,-21 21,-25 70,2 -112,70 -46,16 -70,-2zm5956 -25c89,-37 549,-53 616,-4 -96,36 -541,44 -616,4zm-5672 33c58,-60 10,-61 78,-14 -30,17 20,43 -78,14zm-1445 -33c30,-17 -5,-58 76,1 -84,74 -45,21 -76,-1zm-99 0c28,-14 -12,-59 81,1 -94,72 -49,22 -81,-1zm-96 0c33,-18 -9,-55 79,1 -96,73 -53,19 -79,-1zm-96 0c50,-28 -8,-53 77,2 -90,66 -45,24 -77,-2zm-98 0c55,-31 -7,-51 77,1 -93,68 -49,21 -77,-1zm2570 20c-100,14 -306,6 -377,-43 100,-17 297,-10 377,43zm11108 -31c-43,-74 -35,-9 0,-81 64,54 69,24 0,81zm-139 -78l40 4 62 42 -62 25 -41 2 -66 -42 66 -31zm-107 76c-48,-73 -35,-13 0,-76 32,68 42,5 0,76zm-118 -54c31,-23 -19,-43 79,-9 16,84 22,30 -23,65l-58 -17 2 -39zm-1715 -709l397 3 -4 756 -393 -2 -290 -11 0 -747 290 1zm-1041 -434l689 5 -1 1188 -699 -2 11 -1191zm-1774 1159c50,-30 71,-22 126,28l-126 -28zm554 -25c65,-28 -5,-38 68,2 -67,38 -8,40 -68,-2zm-199 -20l142 -1 52 31 -69 16 -114 -1 -60 -28 50 -16zm-117 20c43,-21 13,-25 60,2 -62,38 -9,40 -60,-2zm-1518 -25c101,-31 537,-51 619,-1 -63,34 -385,33 -490,31 -113,-2 -91,-4 -129,-29zm-439 25c-33,-57 -34,-4 0,-69 25,51 59,-7 0,69zm-98 -6c35,-43 -22,-31 50,-46 -26,59 21,30 -50,46zm-3843 -19c35,-33 -14,-79 70,-4 -49,30 4,39 -70,4zm-99 0c42,-33 -17,-69 77,-3 -81,51 -20,38 -77,3zm-100 0c65,-43 11,-44 78,-2 -89,63 -29,37 -78,2zm-92 0c79,-45 36,-19 73,2 -95,69 -32,39 -73,-2zm-96 0c91,-43 42,-10 71,5 -62,47 -20,56 -71,-5zm5863 24c-46,-57 -31,-28 2,-71 34,64 36,-1 -2,71zm-321 -6l-30 -27 50 -17c87,-10 127,-20 202,8l52 -21 -11 60 -39 -29c-79,41 -126,28 -223,26zm-5717 8c-101,8 -297,5 -370,-46 105,-15 293,-1 370,46zm-624 -51c77,-63 17,-43 79,-2 -55,31 -2,51 -79,2zm-99 0c84,-60 26,-33 81,0 -54,32 -1,61 -81,0zm-97 0c83,-54 40,-20 79,1 -62,40 -18,54 -79,-1zm-61 -17l29 40c-15,7 -98,17 -109,17 -72,-2 -51,28 -53,-62l133 5zm-1219 -4c-34,74 -5,46 -70,23 21,-11 -17,-74 70,-23zm-95 1c-40,73 -12,44 -74,22 22,-11 -19,-69 74,-22zm-98 0c-34,59 -5,46 -71,21 23,-13 -19,-66 71,-21zm-166 21c30,-32 -17,-85 71,6l-71 -6zm-99 0c29,-31 -18,-84 70,5l-70 -5zm8904 0c-21,10 -23,20 -65,10 -127,-30 -20,1 -60,-49l125 39zm430 -74c45,-20 17,-24 67,2 -66,39 -8,40 -67,-2zm-197 -21l133 -1 56 32 -65 19 -113 -1 -65 -32 54 -16zm-69 47c-68,-9 -34,15 -46,-46 65,21 29,-26 46,46zm-6339 -51c29,-33 -31,-31 66,-33 -16,42 28,83 -66,33zm-167 51c-78,34 -313,2 -375,-45 87,-12 305,1 375,45zm6010 -55c40,-48 -56,-21 47,-47 -23,61 22,29 -47,47zm-85 -21c58,-30 0,-40 65,-2 -63,39 -11,34 -65,2zm-48 -20l43 28 -59 19c-159,7 -29,14 -109,-23 56,-25 -30,-36 125,-25zm-1290 0l122 -12 62 35 -53 23 -122 1 -61 -30 51 -17zm-119 20c58,-24 6,-27 64,3l-34 17c-92,18 11,15 -30,-20zm-46 47c-52,-60 -30,-27 0,-69 38,65 38,-3 0,69zm-3869 -47c40,-30 -12,-68 76,-1 -85,58 -25,34 -76,1zm-97 0c63,-37 15,-37 77,1 -93,69 -44,27 -77,-1zm-96 0c77,-36 26,-22 71,3 -91,71 -35,33 -71,-3zm-1063 -49l41 46c-53,27 5,35 -79,2 1,-55 -16,-26 37,-48zm-51 25c-35,48 -10,50 -72,23 27,-18 -22,-62 72,-23zm-266 24c84,-87 40,-30 80,-6 -36,20 -1,60 -80,6zm390 -25c82,-48 24,-29 82,2 -65,39 -20,50 -82,-2zm-298 25c93,-83 46,-28 76,-7 -34,18 16,44 -76,7zm-1250 -25c30,-17 -7,-61 76,1 -82,64 -45,19 -76,-1zm-100 0c25,-13 -13,-58 83,1 -95,68 -53,18 -83,-1zm-96 0c32,-17 -10,-55 81,1 -93,62 -50,19 -81,-1zm-94 0c47,-27 -10,-53 76,1 -92,63 -51,19 -76,-1zm-99 0c53,-31 -8,-51 76,1 -88,62 -43,23 -76,-1zm2196 -25c55,-45 292,-10 370,32 -75,34 -279,0 -370,-32zm7143 -25c46,-19 18,-23 65,2 -65,36 -8,38 -65,-2zm-207 -18l153 0 47 32 -72 13 -103 0 -69 -29 45 -16zm-110 18c42,-19 13,-23 61,3 -63,37 -8,40 -61,-3zm-241 0c47,-25 76,-20 129,31l-129 -31zm-224 -50c-82,30 -29,31 -65,-24 87,-25 27,-38 65,24zm-249 -27l80 29 -86 22 -53 -33 59 -18zm-1265 45c5,-7 9,-31 11,-34 48,-68 -31,5 39,-12 -26,63 24,34 -50,46zm-80 -16l29 -17c63,-16 -8,-10 32,16 -60,32 -4,39 -62,1zm-4034 0c38,-39 -17,-78 69,-6 -42,25 3,38 -69,6zm-99 0c54,-48 -9,-63 75,-4 -54,31 -17,38 -75,4zm-96 0c81,-64 37,-25 76,-2 -56,35 -7,57 -76,2zm5866 24c-52,-63 -32,-27 1,-71 36,66 37,0 -1,71zm-180 -15c25,-21 -60,-106 61,-4l-61 4zm-1077 -26c-61,47 -187,43 -245,25l83 -43c119,-29 143,8 161,18zm-4219 -7c83,-42 24,-28 74,2 -89,72 -37,32 -74,-2zm-94 -11l69 16c-89,76 -41,26 -69,-16zm-829 11c71,-31 294,-9 369,53l-369 -53zm-289 -25c-24,45 17,67 -71,24 26,-15 -18,-56 71,-24zm-170 25c77,-73 18,-46 77,-5 -37,21 -1,49 -77,5zm-91 0c6,-4 14,-12 17,-13 3,-1 14,-5 17,-6 79,-20 -6,-10 33,17 -47,27 -19,29 -67,2zm-99 0c65,-30 4,-38 72,0 -67,39 -9,40 -72,0zm-1089 -21c-31,74 -1,48 -71,22 24,-12 -13,-70 71,-22zm-358 21c31,-33 -17,-84 70,5l-70 -5zm-100 0c31,-33 -17,-84 69,7l-69 -7zm8901 0c-22,7 1,22 -63,9 -111,-21 -33,-12 -58,-45l121 36zm-6892 -20c-79,55 -24,49 -75,-18l75 18zm-1715 28c8,-9 -48,-116 71,-7l-71 7zm-96 -1c7,-8 -49,-114 69,-6l-69 6zm9136 -57c47,-20 18,-24 67,2 -52,29 -21,31 -67,-2zm-201 -19l145 1 49 29 -69 17 -109 -2 -66 -30 50 -15zm-115 19c42,-20 14,-24 61,1 -63,37 -10,39 -61,-1zm-1514 -25c92,-38 505,-42 615,-17 -60,47 -539,50 -615,17zm-5313 -25c59,-28 317,8 374,45 -80,14 -312,-2 -374,-45zm6718 15c-50,6 -15,18 -81,1 -114,-30 -14,2 -51,-52l132 51zm-342 -40c92,-56 35,-19 61,-2 -45,26 -17,29 -61,2zm-78 0c57,-27 1,-39 64,0 -64,40 -10,36 -64,0zm-147 -24l106 5 35 28 -56 19 -53 9c-87,8 -64,15 -134,-11 42,-69 -33,-41 102,-50zm-1193 5l126 -11 62 34 -54 22 -117 3 -64 -30 48 -17zm-88 66c-51,-60 -32,-25 1,-70 39,67 40,-3 -1,70zm-75 9c-60,-64 -31,-32 0,-75 39,68 36,-2 0,75zm-3963 -55c36,-34 -17,-76 73,8l-73 -8zm-101 0c53,-43 -11,-65 75,-4 -69,47 -8,46 -75,4zm-97 0c82,-52 20,-33 78,1 -60,39 -17,48 -78,-1zm-94 0c82,-45 41,-14 74,3 -78,56 -15,59 -74,-3zm-1157 -42l38 45c-60,25 2,42 -87,-12l49 -33zm1547 53c28,-15 -21,-78 69,-32 -47,46 19,29 -69,32zm-1115 -37c-55,26 2,41 -74,1 30,-14 12,-86 74,-1zm-173 1c88,-75 38,-32 79,-5 -42,26 0,55 -79,5zm-97 0c83,-60 36,-26 80,-1 -42,25 0,61 -80,1zm-91 0c62,-27 6,-35 67,2l-34 17c-87,18 15,16 -33,-19zm7688 -25c46,-19 17,-24 66,2l-34 17c-95,18 14,16 -32,-19zm-79 0c58,-23 7,-32 67,2 -117,75 -43,15 -67,-2zm-120 -20l51 -9 63 38 -78 32 -20 -10 -68 -34 52 -17zm-65 47c-72,-3 -36,19 -47,-44 63,19 26,-26 47,44zm-1572 -27c67,-20 554,-53 621,-1l-565 26c-60,-9 -22,-3 -56,-26zm1276 -22c53,-33 70,-18 122,29l-122 -29zm-234 -92c1,83 32,36 -41,56 1,-77 -42,-33 41,-56zm-237 9l20 -14c2,0 97,11 98,12 72,15 17,-1 63,39l-158 24 -26 -6 -55 -31 59 -24zm-1267 49c32,-38 -14,-29 50,-47 -24,63 27,32 -50,47zm-76 4c36,-37 -75,-20 49,-46 -22,61 27,28 -49,46zm-4163 -47c-28,51 1,59 -69,23 26,-15 -19,-56 69,-23zm5797 50c-46,-58 -31,-29 2,-72 35,66 36,-1 -2,72zm-1098 -31c71,-48 51,-31 157,-32 98,-1 406,-17 461,12 -81,44 -510,35 -619,20zm-405 0c77,-47 173,-53 247,-12 -52,38 10,11 -54,28 -83,22 -141,7 -194,-16zm-3973 -19c35,-31 -16,-75 73,-5 -61,40 -7,39 -73,5zm-98 0c46,-34 -14,-66 76,-2 -87,59 -26,39 -76,2zm-100 0c82,-44 21,-31 75,2 -92,70 -37,31 -75,-2zm-91 0c77,-34 40,-11 69,4 -92,70 -34,36 -69,-4zm-1227 -27c119,-30 113,-83 106,53l-126 -15 -49 -26 69 -12zm7299 29c-28,10 15,25 -65,8 -102,-22 -39,-19 -57,-45l122 37zm-6340 25c-71,34 -312,-2 -374,-47 80,-13 307,9 374,47zm-628 -51c83,-66 24,-36 79,-1 -52,32 0,60 -79,1zm-100 0c85,-52 39,-21 79,1 -61,40 -11,57 -79,-1zm-21 3c-72,45 -9,64 -78,-10 78,-40 62,2 78,10zm6448 -66c63,-116 -27,-21 51,-37l-51 37zm-1276 -56c39,50 59,-8 -1,66 -58,-53 -28,-27 1,-66zm2025 88c-56,2 -85,-2 -142,-17 -71,-18 -55,-10 -96,-49 77,3 181,20 237,65zm-438 -48c30,-33 -76,-16 48,-44 -24,60 24,29 -48,44zm-83 -20c56,-27 0,-38 65,0 -110,70 -38,18 -65,0zm-42 -16l33 24 -47 21c-111,5 -56,23 -105,-39l118 -5zm-1201 -12l28 -1 61 35 -61 23 -29 1 -73 -35 74 -23zm-139 28c62,-26 6,-28 68,4 -118,70 -49,13 -68,-4zm-49 51c-51,-63 -35,-27 3,-73 38,71 38,-1 -3,73zm-4231 -51c55,-55 -5,-62 69,-5 -36,20 -1,42 -69,5zm-100 0c82,-68 27,-34 76,-3 -54,33 -4,55 -76,3zm-167 59c-70,30 -311,-2 -374,-53 95,-11 289,8 374,53zm558 -83c71,-49 13,-45 76,-1 -86,63 -24,41 -76,1zm-98 0c79,-41 17,-32 76,3 -95,76 -50,22 -76,-3zm-96 -10l69 15c-88,76 -38,30 -69,-15zm-1117 -14c-28,49 7,62 -71,23 24,-12 -20,-54 71,-23zm-201 0l37 -17 72 43 -59 25 -54 -5 -67 -32 70 -14zm328 -1c82,-47 38,-19 77,2 -64,44 -20,53 -77,-2zm-98 0c83,-37 41,-12 74,5 -49,37 13,17 -47,19 -80,3 7,14 -26,-25zm6931 -15c27,-20 -40,-56 142,-2 82,24 72,-3 92,57l-234 -55zm-6583 -13c72,-40 311,-3 380,46 -116,17 -267,-12 -380,-46zm6316 -31c4,-7 7,-34 9,-38 49,-81 -33,5 42,-12 -28,56 12,33 -51,50zm-214 -37c42,-7 70,-17 114,-16 115,3 26,-9 94,31 -87,47 -38,36 -196,34l-52 -31 40 -18zm-1133 -7c27,-2 91,-15 108,-14 112,3 45,-12 73,53l-201 5 -37 -27 57 -17zm-122 28c97,-58 32,-21 66,-1 -58,31 -9,38 -66,1zm-74 0c56,-27 1,-35 62,1 -63,40 -9,40 -62,-1zm1638 27c-52,-63 -32,-28 2,-73 34,66 33,1 -2,73zm-5671 -52c42,-39 -16,-71 72,-5 -52,31 -8,38 -72,5zm-99 0c84,-64 26,-35 74,-2 -58,41 -17,47 -74,2zm-96 0c79,-50 38,-19 75,2 -64,44 -21,51 -75,-2zm6241 29c-70,-2 -167,-6 -188,-65 81,15 132,21 188,65zm-1468 -29c97,-42 495,-39 617,-17 -70,43 -538,50 -617,17zm-4383 -25c82,-40 24,-27 73,2 -91,78 -48,22 -73,-2zm-1284 0c65,-65 13,-51 75,-6 -34,19 3,45 -75,6zm-100 0c87,-71 34,-33 81,-4 -56,32 -4,55 -81,4zm-97 0c106,-71 47,-19 83,0 -37,22 2,71 -83,0zm-91 0c49,-19 22,-23 69,2l-36 18c-93,18 16,17 -34,-20zm641 -3c84,-40 309,16 374,54 -109,5 -273,-6 -374,-54zm-251 -22c83,-33 40,-9 69,5 -86,71 -28,43 -69,-5zm5046 -28c-46,-96 -17,-31 3,-72 18,46 72,-22 -3,72zm1583 -46c56,-33 -4,-43 62,-2 -47,28 -18,29 -62,2zm-79 0c58,-26 3,-37 66,1 -107,70 -39,18 -66,-1zm-119 -15l-14 -3 84 1 41 29 -70 22c-19,2 -85,14 -90,14 -130,-3 -45,29 -80,-59l128 -5zm-874 49c47,-52 526,-45 621,-26 -52,47 -538,64 -621,26zm-353 -51l131 -13 63 34 -54 21 -118 7 -61 -31 40 -17zm-83 70c-57,-61 -34,-29 2,-74 41,71 37,-3 -2,74zm-4260 -77c-31,48 -6,52 -69,23 24,-17 -25,-63 69,-23zm-604 24c72,-31 297,4 367,50 -78,31 -293,-11 -367,-50zm992 -48c-26,54 -10,47 -69,23 24,-12 -15,-62 69,-23zm-167 23c39,-33 -15,-71 75,-4 -66,41 -8,41 -75,4zm-100 0c84,-58 22,-38 76,-2 -90,68 -31,37 -76,2zm-94 0c75,-39 32,-19 73,3 -94,68 -32,37 -73,-3zm-1152 -42l31 45c-65,25 -116,33 -172,-3 62,-112 20,-18 141,-42zm259 18c70,-64 13,-47 76,-4 -35,19 1,48 -76,4zm-101 0c88,-67 41,-26 79,-3 -58,37 -16,48 -79,3zm-98 0c84,-49 39,-20 80,2 -62,39 -8,63 -80,-2zm5771 -25c102,-17 544,-39 606,-3 -65,33 -383,34 -486,34 -20,0 -54,1 -72,-3 -68,-13 -15,0 -48,-28zm-4945 30c-46,19 -117,2 -184,-7 -225,-30 -154,-32 -180,-64l365 71zm5938 -64c4,-7 8,-34 10,-37 50,-80 -34,5 42,-13 -28,59 15,34 -52,50zm-206 -38l121 -10 64 31 -48 22 -126 6 -59 -31 48 -19zm-1140 -5c31,-6 77,-18 107,-17 113,5 45,-11 74,54l-201 6 -35 -27 55 -16zm-122 27c60,-34 -3,-39 64,0 -61,32 -2,44 -64,0zm-74 0c44,-21 14,-26 61,2 -64,41 -9,41 -61,-2zm-3581 0c66,-33 263,17 320,53 -91,5 -245,-5 -320,-53zm5218 27c-55,-63 -34,-28 1,-73 37,68 34,0 -1,73zm-5766 -52c45,-49 -9,-69 69,5l-69 -5zm-100 0c78,-76 21,-43 74,-5 -39,23 -2,51 -74,5zm390 -25c37,-30 -14,-72 74,-2 -70,45 -11,39 -74,2zm-97 0c63,-40 -1,-50 77,0 -97,66 -53,20 -77,0zm-98 0c77,-37 25,-23 72,3 -90,74 -39,30 -72,-3zm-1112 -25c-32,44 6,58 -73,23 24,-16 -26,-62 73,-23zm-268 25c82,-76 36,-29 81,-4 -38,21 -2,63 -81,4zm1023 42c-103,9 -300,-8 -376,-62 88,-15 310,11 376,62zm-633 -66c86,-61 28,-32 81,-1 -62,38 -19,49 -81,1zm-98 0c88,-50 44,-16 79,3 -63,42 -18,57 -79,-3zm-199 25c89,-82 40,-32 76,-7 -33,18 20,50 -76,7zm5349 -52c-30,-54 -31,-3 1,-68 21,48 57,-6 -1,68zm1588 -26c36,-41 -44,-26 47,-45 -22,63 26,30 -47,45zm-85 -22c57,-24 4,-35 66,2 -80,53 100,-10 -34,17 -86,17 19,18 -32,-18zm-41 -14l34 23 -56 22c-166,17 -103,33 -184,-12 63,-42 105,-32 207,-33zm-1170 -17l59 36 -58 24 -80 -32 80 -28zm-217 88c-58,-63 -34,-31 1,-75 41,71 35,-2 -1,75zm-4137 -81c40,-41 -13,-77 72,6l-72 -6zm-97 0c84,-71 21,-42 76,-4 -55,32 -17,41 -76,4zm-97 0c79,-54 33,-25 77,0 -55,37 -1,67 -77,0zm-163 68c-102,13 -302,-5 -376,-62 93,-12 302,16 376,62zm552 -93c77,-45 13,-41 76,1 -91,70 -49,21 -76,-1zm-94 0c75,-34 18,-26 72,4 -91,74 -42,27 -72,-4zm-1117 -25c-28,48 7,59 -71,23 25,-14 -19,-58 71,-23zm-169 25c77,-76 20,-44 75,-5 -36,20 0,47 -75,5zm-85 23c35,-35 -89,-21 54,-48 -23,54 9,34 -54,48zm-109 -23c85,-56 41,-18 82,2 -44,26 -5,74 -82,-2zm9993 -25c38,-27 -46,-33 82,-36 108,-2 54,15 84,36 -36,26 35,35 -84,38 -113,3 -55,-18 -82,-38zm-9601 0c78,-42 35,-19 76,4 -65,44 -20,52 -76,-4zm5214 -75c87,-9 111,-32 188,1 -49,66 -97,43 -197,43l-43 -26 51 -17zm-117 25c45,-24 13,-27 63,0 -50,29 -19,32 -63,0zm-47 43c-50,-59 -31,-24 -1,-67 37,62 40,-2 1,67zm-4428 34c-102,3 -299,-7 -371,-69 110,-7 293,18 371,69zm6036 -48c-54,-64 -33,-29 1,-74 36,68 33,1 -1,74zm-295 0l-50 -27 26 -19 284 -23c-67,136 103,-77 -25,40l-28 18c-6,3 -22,1 -29,2l-177 8zm3400 -77c-74,39 -91,36 -167,1 27,-18 -32,-51 86,-52 108,-1 64,23 80,52zm-216 1c-75,36 -92,41 -166,0 27,-21 -30,-51 79,-52 113,-2 67,22 87,52zm-3981 -2c97,-35 551,-54 614,-4l-561 27c-56,-7 -22,-3 -53,-23zm-5881 -27c-35,44 5,70 -77,24 31,-23 -29,-59 77,-24zm383 -23c-27,47 9,60 -70,23 28,-16 -18,-57 70,-23zm-171 24c85,-76 26,-40 78,-5 -40,23 0,51 -78,5zm-98 0c83,-62 35,-27 79,-1 -59,37 -4,61 -79,1zm-91 0c50,-20 21,-24 68,2 -6,4 -14,12 -17,13 -110,30 -8,18 -50,-16zm540 -1c65,-36 305,5 376,52 -65,29 -298,-24 -376,-52zm6094 -76l116 20c-60,24 1,27 -122,22l-27 -19 32 -24zm-1219 48c-3,-6 -11,-11 -11,-14 -34,-123 -28,27 10,-58 25,56 59,0 1,72zm-96 -3c5,-7 9,-31 11,-34 45,-67 -27,3 37,-12 -25,58 19,31 -48,46zm4735 -70c-46,74 -114,71 -164,3 38,-26 -45,-30 84,-34 101,-3 61,19 80,31zm-219 24c-63,42 -122,42 -164,-21 21,-16 -6,-48 104,-34 88,11 49,20 59,55zm-2908 26c33,-36 -76,-15 48,-46 -23,64 25,30 -48,46zm-83 -22c58,-24 5,-32 66,2 -112,69 -41,15 -66,-2zm-372 -3c-100,40 -504,39 -621,22 47,-55 219,-32 307,-35 95,-3 246,-32 314,13zm-884 -22l43 -1 60 32 -59 23 -31 4 -66 -36 53 -22zm-70 55c-39,-15 -41,-5 -36,-41 39,12 16,-5 36,41zm-4972 -55c67,-34 545,61 606,96 -88,10 -541,-55 -606,-96zm-430 -75l45 48c-62,31 -2,33 -90,-3l46 -44zm-148 18c115,-25 97,-70 97,59l-127 -11c-67,-6 -25,8 -40,-42l69 -6zm322 7c67,-59 15,-44 75,-3 -38,22 0,49 -75,3zm-99 0c83,-57 36,-25 80,1 -50,31 -1,63 -80,-1zm5661 -3c79,-46 220,-31 332,-32 89,-1 217,-27 287,9 -89,44 -505,38 -620,23zm1024 -24c-3,-5 -11,-12 -12,-14 -31,-112 -22,9 12,-55 24,54 56,-2 0,69zm-91 -48l52 25 -40 21 -194 17c41,-102 -18,-45 71,-56 48,-6 57,-6 110,-7zm-1394 50c42,-39 -69,-16 50,-47 -21,70 35,33 -50,47zm-48 21c-52,-59 -33,-24 -1,-69 41,66 39,-2 1,69zm1609 -15c-57,-69 -32,-33 0,-75 37,67 36,-2 0,75zm-1454 -13l-43 -25 56 -19c179,-14 83,-46 192,8 -40,30 -8,18 -55,33l-150 3zm-5332 -116c-31,50 4,62 -74,23 29,-15 -19,-54 74,-23zm-202 1l37 -19 71 44 -59 29 -51 -8 -68 -29 69 -18zm326 -1c86,-56 39,-23 81,1 -64,41 -19,52 -81,-1zm-98 0c87,-44 44,-14 78,4 -64,45 -13,61 -78,-4zm6467 -53l146 -10 22 14c-54,66 -82,43 -188,43l-36 -29 55 -19zm-1241 50l-16 -30c-18,-88 -24,42 16,-40 21,46 63,-8 0,71zm-96 -1c45,-57 -50,-25 48,-47 -25,58 19,30 -48,47zm1609 -23c33,-35 -75,-17 46,-45 -21,64 28,30 -46,45zm-84 -22c56,-23 5,-31 66,3l-34 16c-90,17 17,17 -32,-19zm-1200 -24l47 30 -47 19c-8,1 -53,2 -60,2 -191,-17 124,56 -53,-22 58,-26 -35,-32 113,-29zm1123 -130l70 34 -63 23 -82 -28 75 -29zm-906 55c98,-36 503,-41 613,-19 -67,47 -552,54 -613,19zm-399 -25c67,-38 -1,-38 71,-2 -62,31 -11,41 -71,2zm-75 0c59,-27 3,-32 65,3l-35 17c-85,16 10,14 -30,-20zm-46 50c-58,-63 -31,-30 0,-72 39,66 39,-3 0,72zm1504 -42c28,-22 -52,-105 64,2l-64 -2zm-1218 -46c97,-7 12,-9 62,19 0,0 -14,81 -157,21 69,-53 -21,-31 95,-39zm1727 67c-75,-11 -189,-30 -221,-96 39,12 80,23 119,37 74,26 56,15 102,59zm-1960 -137c5,-7 9,-32 11,-35 50,-75 -33,6 40,-14 -28,62 20,34 -51,49zm-76 5c42,-46 -45,-26 50,-46 -25,59 23,29 -50,46zm2009 33c-81,-11 -142,-25 -196,-78 85,7 141,29 196,78zm-404 -79c58,-32 0,-38 62,-1 -47,27 -18,30 -62,1zm-79 0c58,-23 6,-32 67,3l-34 18c-87,17 17,18 -33,-21zm-61 32c-7,3 -51,10 -60,11 -111,12 -71,11 -119,-18 60,-44 62,-43 230,-29l-33 28c-5,3 -12,7 -18,9zm-1134 -56l42 25 -39 22c-8,1 -59,3 -66,3 -187,-13 111,51 -55,-22 53,-22 -24,-31 118,-28zm-1444 -303c-37,-73 -29,-183 -1,-259 33,67 42,193 1,259zm2918 -16c-142,-27 -123,-40 -103,-192l108 63 -5 128zm-344 -16c-38,-68 -25,-111 3,-173 40,63 57,108 -3,173zm-3472 -4c-47,-63 -30,-182 -1,-243 24,64 33,178 1,243zm-71 10c-31,-63 -30,-175 0,-241 38,60 39,180 0,241zm3604 -181l132 11 -11 151 -141 -3 20 -159zm-1204 166c-40,-66 -45,-107 2,-176 51,68 45,110 -2,176zm-73 8c-39,-64 -58,-104 2,-177 56,70 38,113 -2,177zm-74 6c-45,-86 -46,-96 1,-181 46,82 43,97 -1,181zm-1487 -7c-32,-70 -36,-191 1,-257 42,69 34,188 -1,257zm-423 -46c-43,-65 -33,-182 0,-247 29,64 38,183 0,247zm-72 13c-31,-65 -35,-180 1,-248 40,63 35,184 -1,248zm496 -328c-42,-74 -29,-166 -1,-239 34,73 44,169 1,239zm-696 1c-40,-65 -38,-157 -1,-220 28,65 27,157 1,220zm199 -31c-34,-65 -32,-174 8,-227 32,62 32,170 -8,227zm72 -7c-35,-68 -42,-160 2,-230 38,68 30,160 -2,230zm-73 -337c-32,-63 -28,-157 3,-221 37,62 41,157 -3,221zm74 -7c-40,-83 -36,-148 -1,-229 36,82 37,147 1,229zm-1709 3522l-141 -22c56,-39 55,-29 135,4l403 38c124,13 68,34 110,-40 -159,-89 -452,-45 -644,-102 136,-40 545,107 644,31 -56,-117 -484,-55 -642,-124 77,-35 501,57 558,54 137,-8 29,5 85,-29 -31,-28 -10,-24 -51,-40 -81,-32 -508,-38 -592,-84 65,-27 498,63 558,58 103,-9 28,7 85,-33 -142,-101 -472,-35 -644,-120l459 48c214,31 148,3 183,-26 -163,-105 -470,-32 -643,-118l507 56c132,19 92,51 134,-39 -178,-92 -469,-25 -642,-114 97,-1 222,23 321,37l244 32c113,-5 37,-1 82,-27 -81,-67 -167,-56 -310,-77 -110,-16 -232,-25 -338,-52 57,-20 377,34 471,50 179,30 141,5 177,-20 -162,-114 -455,-44 -642,-124 153,-70 503,145 640,25 -152,-98 -482,-41 -640,-124 56,-25 530,73 570,72 123,-4 44,3 67,-49 -139,-75 -505,-50 -639,-119 145,-2 542,76 560,75 140,-6 27,7 84,-28 -102,-117 -501,-69 -646,-144 138,-2 526,80 560,77 113,-8 37,2 85,-32 -163,-118 -465,-46 -646,-143 160,4 531,125 643,69 -44,-88 -42,-54 -310,-97 -110,-18 -226,-29 -334,-57 84,-28 522,79 568,78 135,-1 18,10 79,-23 -50,-76 -27,-47 -148,-66 -56,-9 -113,-18 -170,-28 -78,-13 -264,-31 -325,-56 58,-28 217,17 305,33 177,32 254,67 344,17 -96,-86 -80,-28 -190,-72 167,-4 55,25 168,-13 6,-2 14,-8 21,-12 -163,-115 -458,-70 -640,-148l549 80 71 -4 -15 -54 -619 -111c135,-15 536,82 571,82 134,1 16,11 77,-22 -55,-80 -91,-57 -315,-97 -106,-19 -251,-27 -332,-71 99,2 212,31 312,49 185,32 244,71 337,24 -60,-89 -412,-129 -534,-156 -190,-42 -430,-3 -624,19 -81,-110 -99,-82 -319,-119 -114,-19 -252,-28 -346,-69 105,0 202,24 306,42 182,31 241,66 332,12 -138,-95 -473,-76 -651,-150 152,-5 559,135 650,69 -53,-104 -518,-108 -649,-166 183,-6 481,111 648,87 -6,-132 -117,-180 -195,-288 -49,-68 -182,-224 -246,-275l-10 -141c-19,-14 -48,-45 -60,-55 -35,-28 -45,-25 -89,-62 -23,-118 -33,-391 -79,-460l-55 15c-130,166 61,304 -151,497 -109,99 -43,55 -97,155 -46,84 -375,359 -468,473l-11 949 -226 3 -13 -278 -586 -2 -11 459 -195 7 -22 142 -328 4 -13 132 -112 7 -8 985 -283 5 20 1144 -411 231 0 521 -672 52 -15 94c1633,37 3305,-2 4943,2l12316 -1c361,0 2275,42 2463,-24l-32 -67 -345 -33 -10 -402 -202 -28 -13 -235 -169 -56 -8 -552 -369 -3 -7 -174 -196 0 -31 154 -115 5 -43 -88 -133 2c-79,45 -181,32 -269,21l-3 -110 0 -135 -1 -208c91,-8 197,12 250,-28 -7,-128 -13,-42 -33,-106 -13,-43 -11,-92 -15,-141 -246,-36 -128,32 -470,-47 -46,-11 -217,-8 -273,-7 -195,4 -65,49 -219,46 -36,-88 51,-95 -226,-96 -184,-1 -67,-11 -138,-55 -86,-53 -111,-15 -157,45l-290 8 -10 -560c-145,-63 -135,150 -131,-620 2,-296 -52,-63 -41,-523l-1324 -3 -4 -612c-189,-94 -144,-46 -197,-191l-156 -12c-93,-624 -32,-919 -68,-1146 -50,380 39,777 -77,1137l-134 17 -41 100c-55,5 -105,19 -150,24 -67,8 -40,-8 -132,-4l-6 2472 -115 -90 -2 -874c-202,-106 -54,-95 -345,-96 -33,-52 -24,4 -25,-99l-3 -847 -913 5c-8,97 42,477 -40,509l-254 3 -3 1264 -163 155 -12 -1005 -219 -4 -3 -282 -164 -8 -17 -250 -479 -4 -10 415 -164 9 -20 125c-280,7 -119,8 -308,-81l91 -1c-23,-85 -31,-69 -130,-94 -68,-17 -97,-20 -152,-51l279 61c-25,-94 -26,-72 -135,-101 -51,-14 -102,-22 -144,-54 110,15 212,86 290,38 -86,-103 -244,-60 -285,-135l275 76c-33,-146 -116,-60 -280,-158 62,6 92,17 151,36 97,31 82,41 139,5 -57,-95 -193,-61 -290,-134 107,16 178,65 285,62 -42,-134 -238,-75 -277,-158 93,31 178,69 275,64 -27,-79 -32,-61 -133,-91 -64,-19 -97,-26 -148,-57l278 76c-22,-133 -167,-85 -278,-170 104,19 171,67 282,67 -25,-82 -97,-103 -260,-132l-25 -50 33 39c115,14 185,82 257,37 -57,-85 -204,-89 -288,-141l278 81c-29,-127 -167,-97 -279,-176 119,18 159,78 285,66 -32,-79 26,-15 -66,-73l73 -16c-57,-78 -30,-43 -100,-83l90 4c-39,-134 -126,-64 -284,-172l281 96c-9,-113 -18,-69 -114,-129l-22 -151 -125 -40 -4 -275 -85 34 -57 -115 -78 88c-149,4 -103,19 -190,-60l-13 314 -139 24 -4 155 -101 20 -13 139 -313 32c-81,-145 -6,-74 -158,-173l-9 -117 -113 -85 -158 -38c-6,-102 5,-138 34,-225l-37 -72c-59,65 -119,158 -270,28l-13 307 -138 28 -8 151 -105 30c-27,256 -4,1249 -5,1634 0,91 -1,182 0,273 0,34 5,97 3,126 -10,182 15,75 -61,113 -84,-51 -50,-20 -50,-313 0,-115 4,-233 -3,-347l-257 -11 -8 -834 -285 -9 -4 -731c-17,-68 -31,-48 -155,-81l-9 -354 -190 -42 -5 -338 -143 -32 -4 -270c-101,-69 -79,-8 -100,-144l-196 -54 -5 -476c-7,6 -13,7 -14,16l-18 87c-2,45 1,96 -1,145 -3,76 5,136 -1,217l-199 49 -13 115 -94 34 6 268 -139 30 -11 335 -186 44 -8 344 -153 41 -6 2869 -222 44 -11 112c-160,7 -790,-2 -899,-59 69,-20 234,13 316,24 325,45 292,35 323,-27 -167,-86 -473,-17 -641,-92 135,-5 532,61 605,42l40 -21c-58,-59 -32,-46 -135,-54l49 -12c99,-8 23,10 92,-32 -92,-62 -384,-76 -513,-84z"/>
   </g>
  </g>
  <path class="fil0 str1" d="M7895 4313c0,1981 -1606,3587 -3587,3587 -1981,0 -3587,-1606 -3587,-3587 0,-1981 1606,-3587 3587,-3587 1981,0 3587,1606 3587,3587z"/>
  <path class="fil2" d="M1845 2581l55 -15c-4,-109 16,-255 -30,-335 -42,94 -22,238 -25,350z"/>
  <circle class="fil2" cx="3884" cy="2208" r="487"/>
  <polygon class="fil2 str2" points="5371,1554 5377,1578 5397,1586 5377,1593 5371,1618 5365,1593 5346,1586 5365,1578 "/>
  <polygon class="fil2 str2" points="2533,2122 2559,2227 2643,2260 2559,2292 2533,2397 2507,2292 2423,2260 2507,2227 "/>
  <polygon class="fil2 str2" points="6647,2426 6647,2426 6647,2426 6647,2426 6647,2427 6647,2426 6647,2426 6647,2426 "/>
  <polygon class="fil2 str2" points="3663,3278 3663,3278 3663,3278 3663,3278 3663,3278 3663,3278 3663,3278 3663,3278 "/>
 </g>
</svg>
